Coordinates
version=1
nRows=21
nColumns=22
inDegrees=yes

Units are S.I. units (second, meters, Newtons, ...)
If the header above contains a line with 'inDegrees', this indicates whether rotational values are in degrees (yes) or radians (no).

endheader
time	pelvis_tilt	pelvis_list	pelvis_rotation	pelvis_tx	pelvis_ty	pelvis_tz	hip_flexion_r	hip_adduction_r	hip_rotation_r	knee_angle_r	ankle_angle_r	subtalar_angle_r	hip_flexion_l	hip_adduction_l	hip_rotation_l	knee_angle_l	ankle_angle_l	subtalar_angle_l	lumbar_extension	lumbar_bending	lumbar_rotation
      0.01000000	      3.81589284	      5.70028050	   -172.05251118	      0.12190308	      0.96512809	      1.16966443	     30.78017956	      0.73199399	    -18.71949402	    -37.20667768	      9.49796963	      0.76661462	      0.13436833	     -6.04550739	      5.75897076	     -8.98703114	     15.98678869	      1.93631729	     -2.90129126	      3.24883147	    -14.49567599
      0.02000000	      3.71472734	      5.77740211	   -172.05061490	      0.11888526	      0.96488980	      1.16871269	     31.14231247	      0.36843346	    -19.77990251	    -36.94472198	      8.73319790	      0.89319535	     -0.17120471	     -6.22907933	      5.69421826	     -8.95299751	     16.13004988	      1.80444999	     -3.05494669	      3.38348682	    -14.58260259
      0.03000000	      3.59546693	      5.84253680	   -172.06133869	      0.11528303	      0.96455388	      1.16753709	     31.49389199	     -0.03121465	    -20.86714386	    -36.54998147	      8.02037244	      0.96527639	     -0.53193339	     -6.42134654	      5.57875972	     -8.92766207	     16.31548342	      1.75207715	     -3.23620825	      3.51453556	    -14.66264888
      0.04000000	      3.46425530	      5.89144929	   -172.08736386	      0.11120835	      0.96411418	      1.16615950	     31.81619491	     -0.44894774	    -21.93086055	    -36.03448518	      7.42875123	      0.99594500	     -0.93914801	     -6.61429094	      5.43557033	     -8.90557018	     16.53743561	      1.73452058	     -3.43541048	      3.63090309	    -14.72843416
      0.05000000	      3.32591951	      5.92138619	   -172.13241406	      0.10677620	      0.96357554	      1.16462842	     32.09736685	     -0.87273712	    -22.93766246	    -35.41384591	      6.98218324	      0.99190268	     -1.38023277	     -6.79834760	      5.26764880	     -8.89087467	     16.78378260	      1.73742678	     -3.64336940	      3.73276565	    -14.77431033
      0.06000000	      3.18943842	      5.93477325	   -172.19577690	      0.10208384	      0.96293578	      1.16295460	     32.34250653	     -1.29384261	    -23.87953076	    -34.71436406	      6.68127599	      0.96438358	     -1.83943341	     -6.97337598	      5.07559331	     -8.88159714	     17.05024054	      1.75125941	     -3.84824415	      3.81773529	    -14.81154918
      0.07000000	      3.05482115	      5.93414706	   -172.28157819	      0.09719104	      0.96220987	      1.16119558	     32.54771835	     -1.70843273	    -24.75906967	    -33.95391293	      6.49364622	      0.90686141	     -2.31068692	     -7.13505051	      4.86129289	     -8.88494123	     17.32593917	      1.77455290	     -4.04636633	      3.89692754	    -14.82723991
      0.08000000	      2.92166049	      5.92501643	   -172.38616561	      0.09213558	      0.96140731	      1.15933951	     32.71281483	     -2.10939630	    -25.58738073	    -33.14813784	      6.38293696	      0.81357383	     -2.78827783	     -7.29011698	      4.62829260	     -8.90426949	     17.60984625	      1.80392311	     -4.23708304	      3.97058580	    -14.83240205
      0.09000000	      2.79350595	      5.90857344	   -172.51389518	      0.08693086	      0.96053166	      1.15740837	     32.84516301	     -2.49701596	    -26.37146388	    -32.31334378	      6.31367121	      0.67352553	     -3.26923728	     -7.43650601	      4.37399383	     -8.93802986	     17.89270770	      1.83838080	     -4.41453800	      4.04368080	    -14.81884192
      0.10000000	      2.67407863	      5.88728996	   -172.66009773	      0.08158235	      0.95958073	      1.15540910	     32.95254470	     -2.87269718	    -27.12012171	    -31.46266428	      6.26558628	      0.49634887	     -3.74403673	     -7.57591959	      4.10147155	     -8.99297120	     18.18248605	      1.86877339	     -4.57296351	      4.11872508	    -14.80327646
      0.11000000	      2.56381221	      5.85057543	   -172.81751716	      0.07612801	      0.95855713	      1.15335203	     33.03890231	     -3.24694119	    -27.81996555	    -30.60233846	      6.23249985	      0.31261392	     -4.18356817	     -7.69487671	      3.80954808	     -9.11577942	     18.49440716	      1.88335691	     -4.71882774	      4.18320717	    -14.78841105
      0.12000000	      2.45579963	      5.83893732	   -172.99861000	      0.07043763	      0.95748800	      1.15120429	     33.09539308	     -3.57902096	    -28.52236561	    -29.73894100	      6.16646949	      0.00669614	     -4.66971878	     -7.84396272	      3.51615209	     -9.18140539	     18.76867717	      1.95363642	     -4.83925608	      4.28481253	    -14.75741658
      0.13000000	      2.36958671	      5.81127744	   -173.17900541	      0.06465010	      0.95632793	      1.14900986	     33.15274381	     -3.91947647	    -29.17969230	    -28.88424558	      6.10996540	     -0.26766839	     -5.09254914	     -7.97110269	      3.21134958	     -9.33430800	     19.08216734	      2.01815306	     -4.93394552	      4.37516478	    -14.74711354
      0.14000000	      2.29217338	      5.78319308	   -173.35492264	      0.05873342	      0.95510434	      1.14675355	     33.19643427	     -4.25163511	    -29.80838890	    -28.04011374	      6.04770041	     -0.53395975	     -5.48775437	     -8.09826831	      2.91529464	     -9.53274302	     19.40636239	      2.10803894	     -5.01311537	      4.47295054	    -14.75027794
      0.15000000	      2.23240296	      5.74879983	   -173.52129055	      0.05269190	      0.95380328	      1.14444589	     33.24093925	     -4.58734657	    -30.40279702	    -27.22087140	      5.98239413	     -0.76496834	     -5.84640031	     -8.21974509	      2.63863838	     -9.77601962	     19.73850125	      2.22244571	     -5.07006179	      4.57324635	    -14.77394397
      0.16000000	      2.18915669	      5.71752845	   -173.66627380	      0.04654919	      0.95242345	      1.14209544	     33.28815872	     -4.92181452	    -30.96232440	    -26.43526268	      5.92730596	     -0.94023516	     -6.16621119	     -8.34764612	      2.39216890	    -10.06052820	     20.08500152	      2.34221855	     -5.10792558	      4.68715340	    -14.83307211
      0.17000000	      2.15215936	      5.67556107	   -173.78729782	      0.04032931	      0.95098531	      1.13970764	     33.33257280	     -5.26820439	    -31.47083481	    -25.70092010	      5.89982349	     -1.07698086	     -6.44691981	     -8.46854275	      2.18909518	    -10.40861013	     20.44541806	      2.45788840	     -5.14569622	      4.80245605	    -14.91056227
      0.18000000	      2.11951676	      5.64594808	   -173.89133870	      0.03398558	      0.94952513	      1.13725736	     33.37540194	     -5.61020303	    -31.98947009	    -25.03321021	      5.81222442	     -1.29868266	     -6.73757362	     -8.61230298	      2.00246697	    -10.73576702	     20.76615446	      2.73903132	     -5.18222322	      4.94468678	    -15.00912304
      0.19000000	      2.10412499	      5.60319027	   -173.97221026	      0.02756433	      0.94799577	      1.13476467	     33.44129519	     -5.97507060	    -32.45325378	    -24.46317970	      5.76831336	     -1.43299748	     -6.98752062	     -8.74802027	      1.84857183	    -11.10878011	     21.10042300	      2.91850712	     -5.20602226	      5.08516036	    -15.14860993
      0.20000000	      2.08853104	      5.55200332	   -174.04656156	      0.02106859	      0.94646031	      1.13218254	     33.51031944	     -6.34275297	    -32.87731421	    -23.98479486	      5.71109633	     -1.60308921	     -7.23838852	     -8.88423222	      1.72311211	    -11.49115076	     21.40022867	      3.17379047	     -5.24732695	      5.22809646	    -15.27933770
      0.21000000	      2.07592463	      5.48471835	   -174.11729494	      0.01448964	      0.94491205	      1.12949944	     33.58900688	     -6.71706045	    -33.24041366	    -23.61391754	      5.68987340	     -1.76073389	     -7.48764686	     -9.01256948	      1.63128096	    -11.88523538	     21.68621056	      3.41655272	     -5.30065087	      5.36370643	    -15.41643297
